HIERARCHY
ROOT base
{
	OFFSET 0.0 0.0 0.0
	CHANNELS 6 Xposition Yposition Zposition Zrotation Yrotation Xrotation
	JOINT root
	{
		OFFSET 0 0 0
		CHANNELS 6 Xposition Yposition Zposition Zrotation Yrotation Xrotation
		JOINT chest
		{
			OFFSET 0 4.72302 0
			CHANNELS 3 Zrotation Yrotation Xrotation
			JOINT neck
			{
				OFFSET 0 4.47788 0
				CHANNELS 3 Zrotation Yrotation Xrotation
				End Site
				{
					OFFSET 0.0 0.0 0.0
				}
			}
			JOINT right_shoulder
			{
				OFFSET -0.481 4.87 3.6622
				CHANNELS 3 Zrotation Yrotation Xrotation
				JOINT right_elbow
				{
					OFFSET 0 -5.49576 0
					CHANNELS 3 Zrotation Yrotation Xrotation
					JOINT right_wrist
					{
						OFFSET 0 -5.17894 0
						CHANNELS 3 Zrotation Yrotation Xrotation
						End Site
						{
							OFFSET 0.0 0.0 0.0
						}
					}
				}
			}
			JOINT left_shoulder
			{
				OFFSET -0.481 4.87 -3.6622
				CHANNELS 3 Zrotation Yrotation Xrotation
				JOINT left_elbow
				{
					OFFSET 0 -5.49576 0
					CHANNELS 3 Zrotation Yrotation Xrotation
					JOINT left_wrist
					{
						OFFSET 0 -5.17894 0
						CHANNELS 3 Zrotation Yrotation Xrotation
						End Site
						{
							OFFSET 0.0 0.0 0.0
						}
					}
				}
			}
		}
		JOINT right_hip
		{
			OFFSET 0 0 1.69774
			CHANNELS 3 Zrotation Yrotation Xrotation
			JOINT right_knee
			{
				OFFSET 0 -8.43092 0
				CHANNELS 3 Zrotation Yrotation Xrotation
				JOINT right_ankle
				{
					OFFSET 0 -8.1974 0
					CHANNELS 3 Zrotation Yrotation Xrotation
					End Site
					{
						OFFSET 0.0 0.0 0.0
					}
				}
			}
		}
		JOINT left_hip
		{
			OFFSET 0 0 -1.69774
			CHANNELS 3 Zrotation Yrotation Xrotation
			JOINT left_knee
			{
				OFFSET 0 -8.43092 0
				CHANNELS 3 Zrotation Yrotation Xrotation
				JOINT left_ankle
				{
					OFFSET 0 -8.1974 0
					CHANNELS 3 Zrotation Yrotation Xrotation
					End Site
					{
						OFFSET 0.0 0.0 0.0
					}
				}
			}
		}
	}
	JOINT red_arrow
	{
		OFFSET 0 0 0
		CHANNELS 3 Zrotation Yrotation Xrotation
		End Site
		{
			OFFSET 0.0 0.0 0.0
		}
	}
	JOINT blue_arrow
	{
		OFFSET 0 0 0
		CHANNELS 3 Zrotation Yrotation Xrotation
		End Site
		{
			OFFSET 0.0 0.0 0.0
		}
	}
}
MOTION
Frames: 9
Frame Time: 0.0333333333333333
0 18.08466 0 0 0 0 0 0 0 0 -90 0 0 0 0 0 0 0 0 0 -90 0 0 0 0 0 0 0 0 90 0 0 0 0 0 0 0 0 0 0 0 0 0 0 0 0 0 0 0 0 0 0 0 0 0 0 0 0 0 0
1.8452357172966 0 -0.0434870652854442 0 -6.44452782021639 0 0 15.8634389638901 0 -24.058519050393 -7.95138670365879E-16 -9.34465463557464 -3.84162607542931 4.38042679410912 7.39735727787351 0.476875282204927 -3.76550064281379 0.364876985461347 -3.7280985901579 17.2194630495136 -29.2810828865061 80.2479608603715 0 0 0 0 0 -14.9889176175645 -18.7552340546418 36.0773783479794 71.6182490704922 0 0 0 0 0 51.5551708787659 -1.53834167983731 9.9644866549774 -48.8680569075278 0 0 21.6906128392345 2.55887305383488 -1.03359019538565 26.8781135199104 5.0891128382724 13.3892555983887 -89.8774757409573 0 0 -1.39253190368813 4.38769707715126 -19.9441434063724 0 0 0 0 0 0
3.73810259699821 0 -0.233684888482094 0 -6.50777536429107 0 0 16.0027971029282 0 -25.6063706961191 -1.08370709533151 -7.93541914884776 -3.2031551339147 7.08497840138676 3.87855898881149 0.803572657985489 -5.26856510597237 -0.0484630268283249 11.2786956457037 23.9100594631625 -30.2060079545452 83.9922432426158 0 0 0 0 0 -26.2255828790707 -16.0443970129486 37.8343682493006 64.1497582319742 0 0 0 0 0 45.2286307710552 0.730143092175226 8.66309378007254 -46.7491819628281 0 0 27.6311776029563 3.64050242756686 -0.314913668444362 45.6054030734129 0.528547397072681 14.5968799259163 -94.2082732974198 0 0 4.75791071906773 7.04394730540509 -23.1254038600238 0 0 0 0 0 0
5.84317395091057 0 -0.608136869221926 0 -6.45626892172145 0 0 16.2914489507675 0 -26.3003493781167 0.877335814181828 -5.28570491754211 -3.5368110977157 7.59538963454192 -0.0778788358547074 1.73272848770261 -4.84970232716938 -0.930979176214289 24.6270044542403 29.5704157457165 -33.051977241468 89.1305535740814 0 0 0 0 0 -38.6298141491278 -13.7075943389091 40.1344436896779 56.6101651241964 0 0 0 0 0 33.6070515050461 3.43014956613357 3.90069945496036 -37.6639853477681 0 0 30.6371341764816 2.68361357914575 0.905987950647002 62.359009590458 -3.72550325279861 10.5182583942991 -93.5160472854173 0 0 10.1800499776992 10.3829463628448 -26.9531861299644 0 0 0 0 0 0
7.98384804129601 0 -1.07278747837991 0 -6.22629439888969 0 0 16.5376171588898 0 -27.7153016773285 3.86982034904239 -2.6459475672575 -3.7569929922329 7.24969571592959 -3.33848302260167 2.27434114892726 -3.15855099451301 -1.90503557601911 34.6806041312446 34.225123176028 -37.0431380866835 95.006148675504 0 0 0 0 0 -51.1978201595939 -9.79805575842964 42.3096962916501 54.0787023573984 0 0 0 0 0 21.4493448638861 3.63245799668019 -1.82501911127893 -25.9839469330542 0 0 26.8787393584045 1.28785414380983 1.8584355030665 76.4830459522858 -5.82668287187406 4.28180604329611 -86.2181950629338 0 0 14.2071485755285 14.1170213296876 -30.8765202114074 0 0 0 0 0 0
10.1320927321911 0 -1.51736786924303 0 -5.82533507107814 0 0 16.7415040612221 0 -29.5006948384019 6.63998789516808 -1.19506100944528 -4.03625663085845 7.36458871761966 -5.28490382081834 1.40070192433306 -1.15245810070359 -2.59787689536401 39.3727657801875 35.7399001020747 -41.0646202654549 100.915662496345 0 0 0 0 0 -60.1161866289992 -4.04669485517623 42.9066238770266 55.1446831509731 0 0 0 0 0 11.5815791634821 2.08320748752173 -5.55897006122784 -16.3495740804213 0 0 13.8614780311081 0.0219428902699089 2.59204073570828 85.0997218609916 -5.42574655994295 -0.69025665052026 -73.2425295268237 0 0 16.0831921439997 17.006685976395 -33.6362334977947 0 0 0 0 0 0
12.35821185112 0 -1.9217903777957 0 -5.27617459854179 0 0 16.8165217399597 0 -30.296429602638 9.0343441627597 -0.575343744969196 -4.86800545515964 7.56440259693901 -6.22660493820318 -0.222476567578033 0.244058810616023 -3.08886067697199 39.7509847919858 34.529319215996 -44.6829059234271 105.449883576858 0 0 0 0 0 -64.7757815187092 2.15473561223891 42.2054815027516 56.9556531678886 0 0 0 0 0 3.47820578683877 -1.38075752854757 -7.23831173614956 -9.64447897128365 0 0 -6.62265238604784 -0.00704382670442476 4.98931748596268 87.5300363135139 -3.64814805134453 -4.18125005773428 -58.7940293188488 0 0 17.5203902929807 17.8054384067918 -33.3324923541602 0 0 0 0 0 0
14.7340371012688 0 -2.32577913403511 0 -4.66321404443384 0 0 16.666615653038 0 -29.2363378441099 10.1959716742752 0.0913014530595682 -5.64407965258371 7.57864702839713 -6.58890379900564 -1.36582720803406 0.592809338404077 -3.24266669195304 37.3580719949464 32.0818016642278 -46.1206503326009 107.056856333833 0 0 0 0 0 -65.1936099902606 7.26383006167311 39.8544561477932 58.2531056573405 0 0 0 0 0 -3.93439730883542 -3.8173262952351 -7.95866103012343 -8.64907025353444 0 0 -23.8879674754732 1.82917758036653 11.7815090383395 84.9304388669587 -1.31474124646981 -5.74593930529876 -46.454097300116 0 0 18.1500217399735 16.2833076182725 -30.4292344006444 0 0 0 0 0 0
17.2574538350105 0 -2.6934920296073 0 -4.06005335488318 0 0 16.3038024187088 0 -26.5139416475055 10.2819149228929 0.760533486154059 -6.121620142023 6.81410922743374 -6.99675192881362 -1.06522763855755 -0.200932817493004 -2.50311723081312 32.3869147817848 29.2889029568719 -44.3268835012182 104.670777558613 0 0 0 0 0 -62.1202426624548 9.83731426906694 36.3977463782083 59.1099119075836 0 0 0 0 0 -9.06987580579493 -9.22128064540351 -8.42206726021285 -17.2242498130804 0 0 -31.0335397274412 4.97839895562635 18.0347395362607 79.2215364151498 0.870821858663909 -5.55183652205878 -39.2033904583785 0 0 17.3287661837222 14.1012193269499 -27.6841707085079 0 0 0 0 0 0
